<?xml version="1.0" standalone="no"?>
<!DOCTYPE svg PUBLIC "-//W3C//DTD SVG 20010904//EN"
 "http://www.w3.org/TR/2001/REC-SVG-20010904/DTD/svg10.dtd">
<svg version="1.0" xmlns="http://www.w3.org/2000/svg"
 width="576.000000pt" height="576.000000pt" viewBox="0 0 576.000000 576.000000"
 preserveAspectRatio="xMidYMid meet">
<metadata>
Created by potrace 1.11, written by Peter Selinger 2001-2013
</metadata>
<g transform="translate(0.000000,576.000000) scale(0.100000,-0.100000)"
fill="#000000" stroke="none">
<path d="M2946 4832 l-50 -3 95 -51 c225 -121 470 -318 624 -502 22 -27 48
-57 57 -68 9 -11 33 -44 54 -74 20 -30 44 -54 53 -55 9 0 285 -1 613 -1 425
-1 598 -4 601 -12 2 -6 2 -472 1 -1036 -2 -1005 -2 -1026 -22 -1093 -39 -126
-97 -199 -203 -250 -101 -50 -177 -59 -487 -62 -156 -2 -285 -5 -287 -7 -2 -2
33 -42 78 -89 45 -47 141 -148 212 -223 72 -76 158 -168 193 -205 35 -36 89
-93 119 -125 64 -68 60 -67 213 -41 535 92 812 359 917 885 29 148 31 257 32
1623 1 1320 1 1387 -16 1388 -68 2 -2758 3 -2797 1z"/>
<path d="M1828 4825 c-2 -1 -41 -6 -88 -10 -46 -3 -87 -8 -90 -10 -3 -2 -25
-6 -50 -10 -25 -4 -48 -8 -51 -11 -4 -2 -24 -6 -44 -10 -124 -19 -494 -174
-590 -247 -5 -4 -54 -39 -108 -77 -368 -263 -637 -664 -752 -1117 -41 -165
-50 -250 -49 -483 0 -171 5 -236 30 -365 34 -183 128 -438 216 -584 21 -34 38
-65 38 -67 0 -9 138 -195 185 -250 64 -74 183 -189 260 -250 33 -27 61 -52 63
-56 2 -4 7 -8 11 -8 4 0 44 -24 90 -54 176 -116 437 -228 612 -261 12 -2 28
-6 37 -9 9 -3 37 -8 62 -11 25 -4 65 -10 90 -15 76 -14 456 -11 550 4 92 15
135 24 162 32 10 3 30 7 45 10 102 18 361 126 506 211 l68 40 57 -60 c31 -33
98 -102 147 -154 l90 -93 522 2 521 3 -81 86 c-70 74 -178 187 -400 423 -85
90 -295 311 -302 317 -3 4 9 31 28 60 41 65 93 157 123 219 50 104 121 307
139 398 2 9 10 51 18 92 47 231 42 531 -13 780 -129 582 -511 1068 -1050 1336
-60 30 -112 54 -115 54 -4 0 -21 7 -38 15 -18 8 -75 27 -127 44 -88 27 -112
33 -180 46 -14 3 -47 9 -75 15 -27 5 -72 12 -100 16 -53 6 -362 14 -367 9z
m347 -785 c136 -25 289 -81 400 -147 66 -39 194 -144 257 -211 63 -67 161
-201 175 -240 4 -9 9 -19 13 -22 18 -15 92 -213 106 -284 28 -141 37 -319 22
-429 -22 -158 -89 -337 -179 -484 -59 -94 -209 -255 -299 -320 -91 -66 -256
-153 -319 -169 -9 -2 -46 -12 -82 -23 -98 -28 -130 -32 -284 -36 -225 -5 -418
42 -612 151 -287 160 -505 455 -580 784 -26 117 -33 321 -14 427 6 35 13 73
15 85 25 147 129 359 247 503 175 216 440 371 714 418 119 20 301 19 420 -3z"/>
</g>
</svg>
