<svg display="none" version="1.1" xmlns="http://www.w3.org/2000/svg" xmlns:xlink="http://www.w3.org/1999/xlink">
<defs>
<symbol id="icon-facebook" viewBox="0 0 1024 1024">
	<title>facebook</title>
	<path class="path1" d="M575.87 1024h-191.87v-512h-128v-176.45l128-0.058-0.208-103.952c0-143.952 39.034-231.54 208.598-231.54h141.176v176.484h-88.23c-66.032 0-69.206 24.656-69.206 70.684l-0.262 88.324h158.69l-18.704 176.45-139.854 0.058-0.13 512z"></path>
</symbol>
<symbol id="icon-twitter" viewBox="0 0 1024 1024">
	<title>twitter</title>
	<path class="path1" d="M1024 194.418c-37.676 16.708-78.164 28.002-120.66 33.080 43.372-26 76.686-67.17 92.372-116.23-40.596 24.078-85.556 41.56-133.41 50.98-38.32-40.83-92.922-66.34-153.346-66.34-116.022 0-210.088 94.058-210.088 210.078 0 16.466 1.858 32.5 5.44 47.878-174.6-8.764-329.402-92.4-433.018-219.506-18.084 31.028-28.446 67.116-28.446 105.618 0 72.888 37.088 137.192 93.46 174.866-34.438-1.092-66.832-10.542-95.154-26.278-0.020 0.876-0.020 1.756-0.020 2.642 0 101.788 72.418 186.696 168.522 206-17.626 4.8-36.188 7.372-55.348 7.372-13.538 0-26.698-1.32-39.528-3.772 26.736 83.46 104.32 144.206 196.252 145.896-71.9 56.35-162.486 89.934-260.916 89.934-16.958 0-33.68-0.994-50.116-2.94 92.972 59.61 203.402 94.394 322.042 94.394 386.422 0 597.736-320.124 597.736-597.744 0-9.108-0.206-18.168-0.61-27.18 41.056-29.62 76.672-66.62 104.836-108.748z"></path>
</symbol>
<symbol id="icon-feed2" viewBox="0 0 1024 1024">
	<title>feed2</title>
	<path class="path1" d="M136.294 750.93c-75.196 0-136.292 61.334-136.292 136.076 0 75.154 61.1 135.802 136.292 135.802 75.466 0 136.494-60.648 136.494-135.802-0.002-74.742-61.024-136.076-136.494-136.076zM0.156 347.93v196.258c127.784 0 247.958 49.972 338.458 140.512 90.384 90.318 140.282 211.036 140.282 339.3h197.122c-0.002-372.82-303.282-676.070-675.862-676.070zM0.388 0v196.356c455.782 0 826.756 371.334 826.756 827.644h196.856c0-564.47-459.254-1024-1023.612-1024z"></path>
</symbol>
<symbol id="icon-dribbble" viewBox="0 0 1024 1024">
	<title>dribbble</title>
	<path class="path1" d="M512.002 1024c-282.32 0-512.002-229.682-512.002-512s229.682-512 512.002-512c282.322 0 511.998 229.682 511.998 512s-229.676 512-511.998 512zM943.798 582.086c-14.962-4.72-135.364-40.632-272.41-18.698 57.204 157.186 80.478 285.208 84.958 311.808 98.114-66.336 167.958-171.426 187.452-293.11zM682.832 915.238c-6.506-38.37-31.898-172.090-93.298-331.64-0.96 0.328-1.922 0.64-2.88 0.972-246.67 85.958-335.216 257.016-343.086 273.104 74.15 57.824 167.336 92.32 268.436 92.32 60.58 0 118.318-12.39 170.828-34.756zM187.098 805.078c9.908-16.96 129.93-215.684 355.476-288.594 5.704-1.84 11.448-3.57 17.236-5.2-10.98-24.844-22.94-49.714-35.456-74.216-218.398 65.36-430.324 62.63-449.46 62.236-0.132 4.442-0.222 8.89-0.222 13.366 0 112.32 42.58 214.874 112.426 292.408zM83.912 423.096c19.558 0.26 199.736 1.042 404.302-53.282-72.46-128.812-150.612-237.11-162.142-252.92-122.348 57.708-213.802 170.496-242.16 306.202zM409.518 87.5c12.088 16.184 91.518 124.348 163.18 256.014 155.508-58.284 221.34-146.77 229.208-157.974-77.23-68.518-178.782-110.2-289.902-110.2-35.29 0-69.6 4.232-102.486 12.16zM850.522 236.112c-9.216 12.474-82.504 106.418-244.202 172.434 10.178 20.832 19.934 42.018 29.016 63.344 3.216 7.56 6.354 15.084 9.418 22.57 145.518-18.298 290.104 11.028 304.526 14.078-0.968-103.224-37.85-198.010-98.758-272.426z"></path>
</symbol>
<symbol id="icon-github2" viewBox="0 0 1024 1024">
	<title>github2</title>
	<path class="path1" d="M512 831.892c-19.154 0-38.308-9.916-58.142-29.75-7.81-7.81-7.81-20.474 0-28.286 7.81-7.808 20.474-7.808 28.286 0 12.206 12.21 21.972 18.144 29.856 18.144 7.882 0 17.65-5.934 29.858-18.142 7.812-7.808 20.472-7.808 28.286 0 7.81 7.81 7.81 20.474 0 28.286-19.836 19.832-38.99 29.748-58.144 29.748zM0 525.492c0 49.892 4.266 95.122 12.8 135.682s20.534 75.74 36 105.532c15.466 29.792 35.022 55.904 58.666 78.34s49.332 40.92 77.066 55.458c27.734 14.536 59.466 26.296 95.2 35.266 35.732 8.974 72.088 15.256 109.066 18.846s77.69 5.384 122.134 5.384c44.444 0 85.242-1.79 122.398-5.38s73.602-9.872 109.332-18.846c35.734-8.974 67.558-20.73 95.468-35.266 27.91-14.538 53.778-33.026 77.598-55.458 23.824-22.436 43.47-48.548 58.934-78.34 15.47-29.794 27.56-64.974 36.27-105.532 8.71-40.56 13.066-85.788 13.066-135.68 0-89.38-27.736-166.372-83.2-230.982 3.2-8.616 5.954-18.486 8.266-29.614 2.308-11.128 4.532-26.832 6.664-47.112 2.138-20.282 1.336-43.704-2.398-70.264-3.734-26.564-10.754-53.664-21.066-81.302l-8-1.618c-5.332-1.076-14.042-0.718-26.132 1.080-12.086 1.794-26.222 5.022-42.398 9.69-16.176 4.664-37.066 13.908-62.668 27.728-25.598 13.818-52.62 31.318-81.066 52.496-48.356-14.718-115.020-30.116-200-30.116-84.976 0-151.822 15.396-200.53 30.114-28.446-21.18-55.556-38.588-81.334-52.228-25.78-13.642-46.402-22.974-61.868-27.998-15.468-5.024-29.778-8.256-42.934-9.69-13.156-1.436-21.602-1.886-25.334-1.346-3.732 0.538-6.488 1.166-8.266 1.884-10.314 27.64-17.424 54.74-21.336 81.304-3.91 26.56-4.8 49.892-2.666 69.992 2.134 20.102 4.444 35.898 6.934 47.382 2.49 11.486 5.334 21.358 8.534 29.614-55.466 64.25-83.2 141.242-83.2 230.98zM136.536 639.404c0-58.022 21.332-110.638 64-157.856 12.8-14.406 27.646-25.312 44.534-32.712 16.89-7.402 36.088-11.606 57.6-12.606s42.044-0.8 61.6 0.6c19.556 1.402 43.734 3.302 72.534 5.702 28.798 2.404 53.688 3.602 74.666 3.602 20.976 0 45.868-1.2 74.664-3.602 28.806-2.4 52.982-4.3 72.536-5.702 19.56-1.4 40.090-1.6 61.602-0.6 21.512 1.002 40.802 5.204 57.868 12.606 17.066 7.4 32 18.306 44.8 32.712 42.664 47.218 64 99.834 64 157.856 0 34.012-3.554 64.324-10.668 90.934-7.11 26.612-16.090 48.916-26.934 66.922-10.844 18.008-26.048 33.218-45.598 45.62-19.558 12.406-38.492 22.010-56.8 28.81-18.312 6.8-41.958 12.104-70.934 15.906-28.982 3.796-54.934 6.102-77.872 6.9-22.934 0.8-51.82 1.2-86.664 1.2s-63.644-0.402-86.4-1.2c-22.756-0.798-48.622-3.104-77.6-6.9-28.978-3.802-52.622-9.104-70.934-15.906-18.31-6.802-37.244-16.404-56.8-28.81-19.556-12.404-34.756-27.612-45.6-45.62-10.846-18.006-19.824-40.31-26.934-66.922-7.11-26.61-10.666-56.922-10.666-90.934zM256 608.004c0-53.019 28.654-96 64-96s64 42.981 64 96c0 53.019-28.654 96-64 96s-64-42.981-64-96zM640 608.004c0-53.019 28.654-96 64-96s64 42.981 64 96c0 53.019-28.654 96-64 96s-64-42.981-64-96z"></path>
</symbol>
<symbol id="icon-linkedin" viewBox="0 0 1024 1024">
	<title>linkedin</title>
	<path class="path1" d="M852 0h-680c-94.6 0-172 77.4-172 172v680c0 94.6 77.4 172 172 172h680c94.6 0 172-77.4 172-172v-680c0-94.6-77.4-172-172-172zM384 832h-128v-448h128v448zM320 320c-35.346 0-64-28.654-64-64s28.654-64 64-64 64 28.654 64 64-28.654 64-64 64zM832 832h-128v-256c0-35.346-28.654-64-64-64s-64 28.654-64 64v256h-128v-448h128v79.472c26.398-36.264 66.752-79.472 112-79.472 79.53 0 144 71.634 144 160v288z"></path>
</symbol>
<symbol id="icon-pinterest" viewBox="0 0 1024 1024">
	<title>pinterest</title>
	<path class="path1" d="M512 0c-282.77 0-512 229.23-512 512s229.226 512 512 512c282.77 0 512-229.23 512-512s-229.23-512-512-512zM561.644 684.118c-46.52-3.614-66.042-26.656-102.504-48.808-20.060 105.176-44.564 206.016-117.14 258.686-22.404-158.968 32.894-278.364 58.57-405.114-43.784-73.706 5.27-222.034 97.62-185.474 113.626 44.948-98.4 274.008 43.932 302.616 148.62 29.868 209.288-257.858 117.142-351.424-133.158-135.106-387.598-3.080-356.31 190.356 7.614 47.292 56.472 61.638 19.524 126.902-85.22-18.892-110.65-86.102-107.376-175.712 5.268-146.674 131.784-249.364 258.686-263.566 160.484-17.964 311.106 58.908 331.906 209.876 23.412 170.39-72.448 354.93-244.050 341.662z"></path>
</symbol>
<symbol id="icon-codepen-logo" viewBox="0 0 120 120">
	<title>codepen</title>
	<path class="outer-ring" d="M60.048 0C26.884 0 0 26.9 0 60.048s26.884 60 60 60.047c33.163 0 60.047-26.883 60.047-60.047 S93.211 0 60 0z M60.048 110.233c-27.673 0-50.186-22.514-50.186-50.186S32.375 9.9 60 9.9 c27.672 0 50.2 22.5 50.2 50.186S87.72 110.2 60 110.233z"/>
	<path class="path1" d="M97.147 48.319c-0.007-0.047-0.019-0.092-0.026-0.139c-0.016-0.09-0.032-0.18-0.056-0.268 c-0.014-0.053-0.033-0.104-0.05-0.154c-0.025-0.078-0.051-0.156-0.082-0.232c-0.021-0.053-0.047-0.105-0.071-0.156 c-0.033-0.072-0.068-0.143-0.108-0.211c-0.029-0.051-0.061-0.1-0.091-0.148c-0.043-0.066-0.087-0.131-0.135-0.193 c-0.035-0.047-0.072-0.094-0.109-0.139c-0.051-0.059-0.104-0.117-0.159-0.172c-0.042-0.043-0.083-0.086-0.127-0.125 c-0.059-0.053-0.119-0.104-0.181-0.152c-0.048-0.037-0.095-0.074-0.145-0.109c-0.019-0.012-0.035-0.027-0.053-0.039L61.817 23.5 c-1.072-0.715-2.468-0.715-3.54 0L24.34 46.081c-0.018 0.012-0.034 0.027-0.053 0.039c-0.05 0.035-0.097 0.072-0.144 0.1 c-0.062 0.049-0.123 0.1-0.181 0.152c-0.045 0.039-0.086 0.082-0.128 0.125c-0.056 0.055-0.108 0.113-0.158 0.2 c-0.038 0.045-0.075 0.092-0.11 0.139c-0.047 0.062-0.092 0.127-0.134 0.193c-0.032 0.049-0.062 0.098-0.092 0.1 c-0.039 0.068-0.074 0.139-0.108 0.211c-0.024 0.051-0.05 0.104-0.071 0.156c-0.031 0.076-0.057 0.154-0.082 0.2 c-0.017 0.051-0.035 0.102-0.05 0.154c-0.023 0.088-0.039 0.178-0.056 0.268c-0.008 0.047-0.02 0.092-0.025 0.1 c-0.019 0.137-0.029 0.275-0.029 0.416V71.36c0 0.1 0 0.3 0 0.418c0.006 0 0 0.1 0 0.1 c0.017 0.1 0 0.2 0.1 0.268c0.015 0.1 0 0.1 0.1 0.154c0.025 0.1 0.1 0.2 0.1 0.2 c0.021 0.1 0 0.1 0.1 0.154c0.034 0.1 0.1 0.1 0.1 0.213c0.029 0 0.1 0.1 0.1 0.1 c0.042 0.1 0.1 0.1 0.1 0.193c0.035 0 0.1 0.1 0.1 0.139c0.05 0.1 0.1 0.1 0.2 0.2 c0.042 0 0.1 0.1 0.1 0.125c0.058 0.1 0.1 0.1 0.2 0.152c0.047 0 0.1 0.1 0.1 0.1 c0.019 0 0 0 0.1 0.039L58.277 96.64c0.536 0.4 1.2 0.5 1.8 0.537c0.616 0 1.233-0.18 1.77-0.537 l33.938-22.625c0.018-0.012 0.034-0.027 0.053-0.039c0.05-0.035 0.097-0.072 0.145-0.109c0.062-0.049 0.122-0.1 0.181-0.152 c0.044-0.039 0.085-0.082 0.127-0.125c0.056-0.055 0.108-0.113 0.159-0.172c0.037-0.045 0.074-0.09 0.109-0.139 c0.048-0.062 0.092-0.127 0.135-0.193c0.03-0.049 0.062-0.098 0.091-0.146c0.04-0.07 0.075-0.141 0.108-0.213 c0.024-0.051 0.05-0.102 0.071-0.154c0.031-0.078 0.057-0.156 0.082-0.234c0.017-0.051 0.036-0.102 0.05-0.154 c0.023-0.088 0.04-0.178 0.056-0.268c0.008-0.045 0.02-0.092 0.026-0.137c0.018-0.139 0.028-0.277 0.028-0.418V48.735 C97.176 48.6 97.2 48.5 97.1 48.319z M63.238 32.073l25.001 16.666L77.072 56.21l-13.834-9.254V32.073z M56.856 32.1 v14.883L43.023 56.21l-11.168-7.471L56.856 32.073z M29.301 54.708l7.983 5.34l-7.983 5.34V54.708z M56.856 88.022L31.855 71.4 l11.168-7.469l13.833 9.252V88.022z M60.048 67.597l-11.286-7.549l11.286-7.549l11.285 7.549L60.048 67.597z M63.238 88.022V73.14 l13.834-9.252l11.167 7.469L63.238 88.022z M90.794 65.388l-7.982-5.34l7.982-5.34V65.388z"/>
</symbol>
</defs>
</svg>
